<svg xmlns="http://www.w3.org/2000/svg" xmlns:xlink="http://www.w3.org/1999/xlink" viewBox="0 0 856.9 278.62">
  <defs>
    <clipPath id="clip-path" transform="translate(0 0)">
      <rect width="2400.95" height="278.62" style="fill: none"/>
    </clipPath>
  </defs>
  <g id="Layer_2" data-name="Layer 2">
    <g id="Layer_1-2" data-name="Layer 1">
      <g style="clip-path: url(#clip-path)">
        <path d="M174.43,200.56c0-84.78-113.54-80.3-113.54-131.47,0-18.67,10.83-28.75,29.13-28.75,22.79,0,26.15,20.54,26.15,40.71h54.9c3.74-56.4-23.53-81-78.43-81C23.92,0,3.75,33.61,3.75,75.82c0,80.3,113.54,83.28,113.54,131.84,0,18.3-9.34,30.62-28.39,30.62-31,0-32.12-21.66-32.12-47.43H.39c-3,46.69,10.08,87.77,79.92,87.77,43,0,94.12-8.22,94.12-78.06" transform="translate(0 0)" style="fill: #2e9161"/>
      </g>
      <path d="M398.64,274.14,414,214.38h76.94l14.94,59.76h59.38L492,4.48H417.69L343,274.14Zm80.3-101.22H425.16L450.93,56.4h.75Z" transform="translate(0 0)" style="fill: #2e9161"/>
      <polygon points="645.51 274.14 645.51 66.11 646.26 66.11 695.56 274.14 749.34 274.14 801.25 66.11 802 66.11 802 274.14 856.9 274.14 856.9 4.48 769.13 4.48 724.32 187.86 723.57 187.86 681.37 4.48 590.61 4.48 590.61 274.14 645.51 274.14" style="fill: #2e9161"/>
    </g>
  </g>
</svg>
